<?xml version="1.0"?><svg version="1.2" baseProfile="tiny-ps" viewBox="0 0 300 300" xmlns="http://www.w3.org/2000/svg" xmlns:xlink="http://www.w3.org/1999/xlink"><title>KHA333N</title><g><g fill="#e0e5df" transform="matrix(.1 0 0 -.1 0 300)"><path d="M0 1500V0h3000v3000H0V1500z"/></g><g fill="#a6b9ba" transform="matrix(.1 0 0 -.1 0 300)"><path d="M0 1500V0h3000v3000H0V1500zm2404 1399c93-22 132-36 122-46-5-5-132 20-190 38-16 5-38 9-48 9h-20l30-30 30-30 7-31c4-17 5-33 2-35-3-3-8 8-12 25l-7 31-29 16-30 15-229-3-229-3-32-30c-32-31-185-200-453-500-83-93-184-204-224-246-94-98-145-127-127-70l6 20 34 11 34 11 98 111c54 61 132 150 173 197 209 241 464 522 483 532 11 7 32 15 46 20l26 7 224 1 224 1 91-21zm-1390-14c115-25 163-41 152-52-6-7-165 16-186 27-8 4-33 11-55 15l-40 7 24-26 23-25 9-43 8-43-7-260-7-260-5 283-5 284-33 29-32 29H519l-34-14-33-14-11-20-11-21-1-568-1-568-8-25-8-25-1 598-1 599 16 33c36 76 60 83 294 84l175 1 119-25zm-180-83 16-19-5-124c-2-68-7-194-11-279-3-85-7-186-10-225l-4-70-16-37-17-38h-28l6-10 7-11-31-10-31-11v-14c0-8-4-14-8-14-5 0-17-7-28-15l-19-15 29 10c35 13 44 7 23-14l-15-16-4 12-4 12-44-23-43-22-7 11-7 12-6-16-6-16h14c8 0 15-4 15-10v-10h-19c-11 0-26-6-34-14l-14-14-19 1-19 2-7 30c-4 17-11 231-14 476l-7 447 26 26 26 26h298l17-18zm1400 5 17-13-43-41c-24-23-69-69-102-102-32-34-62-61-66-61s-10-10-14-22l-6-23-9 14-10 15-6-27-7-27h-28v-14c0-7-7-19-16-27l-16-13-9 15-10 14 5-20 5-20-24-27c-26-31-40-36-31-13l5 15h-7c-4 0-22-13-40-30-18-16-31-30-28-30s-3-9-14-20l-20-20-22-1-23-1 13-5c18-7 15-31-7-43-25-13-34-13-26 0l6 10h-15c-19 0-21-11-4-28l12-12h-11c-6 0-13-6-16-12-2-7-2-3 0 10l3 22h-9c-6 0-15-9-21-20s-20-25-31-31l-21-11 6 11 7 11h-21v-31l-20 6-20 6-17-17c-10-10-23-27-29-38l-11-21-12 3-12 2-35-37-35-38 7 18 6 17h-10c-6 0-18-7-26-16-9-8-16-12-16-8s-7-1-15-12l-14-19-1 15-1 15-10-23-9-23-10 6-10 6 7-18 7-18-16 13-16 13-14-20-15-21-6 7-7 6v-23h-29l-11-19-10-19-22 6-23 5 15-18 15-19-17 7-17 6-44-34c-45-34-110-68-137-70-8-1-25 8-37 19l-23 19v37h114l49 53c27 28 87 97 135 152s113 129 145 164 92 104 134 155c42 50 101 118 132 151s87 95 126 139l69 79 31 13 30 13 186 1h185l18-13zm183-34-5-18v60l5-12c2-7 2-21 0-30zm181-19 22-14v-62l-42 7c-24 4-68 15-98 24l-55 17 1 12c1 7 2 25 3 41l1 30 73-20c39-11 82-27 95-35zm-1473 3 89-23 6-23c3-12 3-42 2-65l-4-44-24-12-23-13-17-73-16-73 12-68c7-37 14-79 17-93l5-25-27-29-26-28-22 29c-12 15-31 38-42 51l-20 23-7 37c-4 20-7 130-7 245l-1 207h8c4 0 47-11 97-23zm-238-39-4-23v40l-1 40 5-17c2-10 2-28 0-40zm1382-44c-35-43-106-122-157-177s-131-144-178-198c-46-54-90-101-96-105l-12-8 21 30c11 16 72 85 134 154 63 69 141 157 174 195 33 39 80 92 105 118 25 27 49 55 53 64 5 8 11 12 14 9s-23-40-58-82zm-426-288 6-14-19-5-19-5 12 19c14 23 13 23 20 5zm-33-220c0-2-8-10-17-17l-18-14 14 18c13 16 21 21 21 13zm-50-59c0-2-17-19-37-38l-38-34 34 38c33 34 41 42 41 34zm-119-136c-28-32-58-64-68-72s11 19 46 59c35 39 66 72 68 72 3 0-18-26-46-59zm-868-16c-21-14-53-16-53-3v9l20-6 20-6 6 15 6 16 10-6 9-6-18-13zm715-157c-30-35-60-72-66-83l-11-20-1 14c0 13 116 151 127 151 3 0-19-28-49-62zm-969-9c-22-13-31-11-17 5 7 8 17 12 22 9l8-5-13-9zm51 7c0-3-4-7-9-11l-10-5-6 10-6 10h15c9 0 16-2 16-4zm1209-162c15-14-20-11-125 11-65 14-120 25-121 25-2 0-3 4-3 9v8l123-24c67-14 124-27 126-29zm203-519c44-55 85-107 91-115 7-8 30-40 52-70s45-62 52-70 46-62 87-120 92-129 113-158 62-91 90-139l53-86-17-28c-10-16-20-29-23-29-18 1-62 57-181 225-73 105-182 260-242 345-61 85-110 161-110 167 0 7-2 11-5 8-3-2-13 7-24 20l-19 25 6 9 5 10-11 7-12 7 8-13 8-13-12 7-12 8 5 14 5 13-11 7-11 7 8-14 8-14-18 17-18 16-1 24-2 23-12-2-11-3 4 13 5 12-21 25-21 25 16-27c22-38 13-35-15 4-13 17-18 28-11 24 18-11 15-1-18 51-16 26-30 52-30 57 0 17 164-158 252-269zm-927 130c6-2-18-4-53-4l-63-1 5 9 6 9 47-5c27-3 53-6 58-8zm-334 756-13-8 10-7 10-6 6 15c6 17 6 18-13 6zm979 305c0-2 7-7 16-10l15-6-6 10c-6 10-25 14-25 6zm-233-140-6-15 14 6 15 5-6 9c-7 12-11 11-17-5zm-71-41-19-14-10 6-10 6 6-10 7-10 24 4 25 5 5 14 5 14h-7c-4 0-16-7-26-15z"/></g><g fill="#7a939a" transform="matrix(.1 0 0 -.1 0 300)"><path d="M0 1835V671l17 6c10 4 37 17 60 30 24 13 43 21 43 18s12 0 27 9c41 21 130 56 144 56 7 0 27 11 44 24l32 25 7-52c3-29 6-162 6-297l1-245 13-38c17-47 41-74 85-96l34-18-64-12C363 64 147 10 141 5c-2-3 640-5 1427-5h1432v3000H0V1835zm2396 1071c108-27 154-44 154-58v-9l-37 7c-21 3-56 10-78 15-22 6-49 12-60 14s-33 7-48 11l-28 7 20-34 21-34v-71l-82-98c-44-55-120-140-167-191-100-106-481-532-610-682l-53-62 5-15c3-8 48-77 99-153 213-317 217-334 8-39l-140 199 22 28c36 43 206 236 408 463 102 115 225 254 274 310 49 55 117 132 152 170l64 68v25c0 13-5 33-10 43l-10 19-36 10-35 10-202-5-202-5-31-15-32-16-143-161c-79-89-169-189-199-222-31-33-110-121-175-195-66-74-148-163-183-197l-63-63h-39l1 48 1 47 5-17 4-18h18c25 0 59 29 122 102 49 57 52 69 6 29l-18-15-23 29-23 28-16-6-17-6-1 12c-1 7-1 73-2 147v135l-6-90-6-90-8 25c-3 14-8 128-9 253l-3 229 11-28 11-27 5 13 4 13 93-23 92-23 15-14 15-15-7-221-7-220 11 7c7 4 40 40 74 79 69 81 220 252 351 399 49 54 105 110 124 126l36 27 96 6c53 3 161 6 241 7l145 2 101-24zm-1405-12c74-14 146-32 161-40 29-15 37-34 16-34-17 0-169 27-188 33-8 3-28 8-43 11l-28 7 22-30 22-30 8-48 8-48v-283l1-283-8 5-9 5 1-37c0-20-1-67-2-104l-2-68h-19l-3 413-3 412-18 27-19 27-34 11-35 12-165-8-166-7-27-23-26-22-5-769-5-768-7 65-8 65-2 705-2 705 16 37 16 36 28 19 28 18 111 6c60 3 142 6 181 7l72 2 133-26zm1429-86v-7l14 5 14 5 63-16c35-9 74-23 87-31l22-14v-91l-17 5c-10 3-49 12-88 21-38 9-76 19-82 23l-13 8-9 50c-5 27-13 58-16 69l-7 20 16-19c9-11 16-23 16-28zm-1577-7 19-16-6-75c-4-63-10-682-7-774l1-28 20 5 20 5 28-10 28-11 27 7 26 6 138 157c76 86 175 197 220 246s89 103 97 121l15 31 86 85c48 47 96 99 107 115l21 30-39-35c-21-19-7-2 31 38l70 73 45 27 45 27 195 3 196 3 18-20 19-21-54-58c-30-32-69-76-88-98-35-41-86-96-205-225-39-42-78-86-87-98-15-20-183-199-309-330-24-25-48-45-52-44-4 2-8-1-8-5 0-5-13-23-29-41l-29-32-5 13-5 13-1-17c-1-10-5-18-10-18s-14-14-21-30l-13-31-21 6-21 6 14-9 13-9-11-22c-7-11-16-21-22-21h-9l6 25 6 25h-13c-7 0-10-3-6-6 3-3-2-15-12-25l-18-20-18 7-18 7 7-11 6-11-10-6-10-6v32l-20-19-21-19-24 5-25 4v-10c0-5-7-12-14-15l-15-6 6 15c3 7 2 14-1 14-14 0-75-38-71-44 3-3-1-2-7 4-7 5-18 10-26 10h-13l6-10 6-10h-10c-6 0-11 6-11 13v12l-43 2-42 1 30-14 30-14-24 4-23 5-26-10-25-10-11 11c-5 5-14 10-19 10h-8l6-22 6-23-13 16-13 16-15-16c-8-8-14-19-13-23 2-5-2-8-8-8h-11l5 15 6 14-8 5-8 5-13-25-14-25-24 6-24 6 6-9 5-8-19-12-19-12-6 10-6 10h15c9 0 16 5 16 10 0 13-11 12-32-4l-17-13 12-12 12-12-15 3-15 3 3-19 4-20-14 11-13 11-13-14-13-14h22l-6-10c-4-6-10-8-15-5s-11 1-15-5c-3-5-15-10-25-10h-19l-5-17-5-18 4 33c2 17 0 32-4 32h-6l-4 112c-1 62-4 115-7 119-2 3-4 235-4 514l-1 508 16 16 16 16 127 5c70 3 143 3 162 1l35-4 18-16zm51-37c8-21 6-395-4-514l-7-95-2 115c-1 63-4 204-8 313l-6 197h10c6 0 14-7 17-16zm366-1039c0-2-10-10-22-16l-23-12 14 16c13 16 31 23 31 12zm203-187c57-87 102-158 98-158-13 0-220 289-221 308v14l9-4c5-1 56-74 114-160zm58 120c12-24 44-74 72-111l50-68 6 9 6 10 22-12c41-22 161-136 236-224 161-191 647-871 647-906 0-19-13-31-56-53l-40-21-150 214c-129 186-336 479-518 734-103 146-306 450-306 460 0 20 10 9 31-32zm139 8 115-23 3-14 3-15-127 26-128 26-4 12-4 12 14-1c7 0 65-10 128-23zm-640-16c0-5-5-10-11-10h-10l6 10c3 6 8 10 11 10 2 0 4-4 4-10zm-463-170c-13-22-27-26-27-10 0 15 23 39 32 33l8-4-13-19zm1038-142 16-33-20 25c-20 24-26 40-16 40 2 0 12-15 20-32zm60-79c11-17-1-21-15-4l-12 15h10c6 0 14-5 17-11zm-575-14 25-15-82 1-83 2v27h58l57-1 25-14zm600-25c0-5-2-10-4-10-3 0-8 5-11 10l-6 10h10c6 0 11-4 11-10zm50-71v-10l-10 6c-5 3-10 11-10 16v10l10-6c6-3 10-11 10-16zm94-138c-5-5-43 42-44 54 0 6 11-3 24-20 13-16 22-32 20-34zm-341-394c84-117 179-252 212-300l59-88-14-9-15-10h-95c-52 0-138-5-190-10-52-6-125-13-163-17l-67-6 15 36 15 36v309c0 170 3 323 6 340l6 31 40-50c22-28 108-146 191-262zm949 259c10-1 26-10 36-19s24-17 31-17 24-9 38-20 29-18 33-15c4 2 18-7 30-20 13-14 29-25 36-25s14-6 16-12l5-13h38l-3-16-2-16 25-13 25-13v-14c0-7 7-16 15-19l15-6V480l-27-38c-25-35-62-62-85-62-4 0-19 17-33 38-14 20-35 51-47 68-13 18-49 69-81 115s-80 116-108 154c-27 39-62 91-78 116l-29 46 67-19c36-11 74-20 83-22zm-451-83 14-18-17 14c-17 13-22 21-14 21 2 0 10-8 17-17zM748 153c-10-2-28-2-40 0l-23 4h40l40 1-17-5zm402 1587-25-8 22-1c12-1 25 4 28 9 3 6 5 10 3 9s-14-5-28-9z"/></g><g fill="#526b79" transform="matrix(.1 0 0 -.1 0 300)"><path d="M0 1971V942l20 5c10 3 25 11 31 19s16 14 22 14c11 0 113 47 228 105l67 33 6-46c3-24 6-212 6-416V285l10-34 10-34 26-28 27-28 76 4 76 4-70-9-70-9-20 6-20 6 19-21c18-21 59-38 106-44l25-3-70-18c-38-10-83-23-98-29l-28-11 3-16 3-16 1308-3 1307-2v156l-82-8c-46-4-123-7-171-7l-88 2 8 31c4 17 8 59 8 93l-1 61-33 53c-18 29-150 220-294 424-291 413-405 576-454 650l-33 49 16 9 17 9 71-6c39-4 81-8 94-9 12-1 26-8 31-15l8-13 52-6c28-3 54-10 57-14 3-5 16-9 30-9s48-7 75-16l51-17 5-13 5-13 36-7c38-6 80-28 97-50 6-7 33-25 62-39s55-30 58-35c3-6 14-10 25-10h18l42-35c23-19 46-35 51-35 15 0 110-72 178-136l61-56v2012H0V1971zm2418 935 92-24 28-19 27-18-26-3c-14-2-53 3-87 11l-60 14 10-22 10-22 76-18c43-9 89-24 103-31l27-13 5-28c3-15 3-40 0-55l-5-28-27 7c-14 3-60 15-101 27l-75 21-2 20c-2 11-8 44-14 73l-11 53-21 13c-12 8-33 17-46 21l-24 7 21-26c11-15 23-40 27-56l6-29-14-28c-17-31-145-181-282-331-49-53-108-118-130-143-22-26-80-91-130-146-161-177-360-405-364-415-1-5 3-17 11-26 22-26 449-662 445-662-10 0-487 668-487 681 0 7 132 160 450 520 329 373 384 435 394 444 6 6 26 27 44 48l32 38v48l-26 20-27 21h-426l-23-9c-13-5-36-21-53-35l-30-26 28 10c15 5 40 16 57 25l29 15h388l17-19 17-19-47-53c-26-30-62-70-79-89-80-88-242-268-270-299-16-19-73-82-125-140s-113-126-134-151c-22-25-83-92-135-149-53-56-111-119-128-138l-33-36v-37h39l16-22c9-13 47-68 85-123 118-172 221-320 330-476 460-656 558-799 546-799-5 0-106 138-263 356-243 341-408 569-413 574-3 3-45 59-92 125-48 66-99 134-114 150-14 17-33 40-42 53l-15 23-18-20c-11-11-19-25-19-31 0-5-5-10-11-10h-10l6 20 6 20h-10c-5 0-14-8-20-17l-9-18-8 7-7 8 13 15 12 15h-15c-8 0-17-6-20-14l-6-14-30-7-31-7 6-9 5-9h-10c-6 0-11 6-11 14v14l-20 5-20 5 6-9 5-9h-15c-9 0-16-4-16-10 0-5-5-10-10-10h-11l11 20 11 20h-11c-5 0-10-4-10-10 0-5-7-10-15-10s-15-5-15-11v-10l-10 6-10 6 7 12 7 12-15-12-15-12-22 6-22 5v-24l15 6 15 5v-8c0-5-14-11-31-13l-30-5 4 17 4 17h-26l2-11 2-11-27 2-28 2v-39l-32 1h-33l23 9 22 9v26l-9-14-9-14-21 6-21 5-7-10-6-11 11 7 12 7v-13c0-23-14-35-47-41l-31-6-13 15c-6 8-14 12-17 9s3-14 13-25 15-20 10-20c-4 0-13 7-19 16l-12 15-24-9c-25-10-48-30-76-67l-16-20 7 20c4 11 8 28 11 39l3 19-7-7c-4-4-7-13-7-19v-12l-34-16-35-16-7-22-8-21h-14c-8 0-19 6-25 13l-11 13-9 114-9 115-2 410c-1 226-4 497-7 603l-6 193 12 29 12 29 30 10 31 11h284l23-25c12-13 26-22 31-20l8 5 6-21 7-21-3-410-4-410 19-14c25-18 40-18 74 0l27 14 120 141c66 77 120 144 120 148 0 5 13 25 29 46l29 38 6-8 6-9 40 46 39 45-32-29c-54-50-36-14 23 44 30 30 55 59 55 65-1 5-11-2-23-16-159-188-394-437-430-455l-28-15-9 6-10 6v-41h-20v383l-1 382-8 45-9 44-27 23-26 23H500l-30-27-30-28-7-945-8-945-7 180c-4 99-9 531-10 960l-3 780 17 31 17 31 38 19 38 19 185 3 185 4 123-26c130-28 150-35 172-60l12-16h-38c-22 0-81 9-131 19-51 10-93 16-93 15 0-2 9-18 20-36l20-33v-734l8-5c5-3 24 3 42 12l33 17 34 42 34 41-21-5-21-6-13 18-13 18-16-6-15-6-13 32-13 32-6 280-5 280-9 18-8 17h10c6 0 14-9 17-20 4-11 10-18 14-16 8 5 201-41 210-50 3-3 8-105 11-225l5-220 170 193c94 106 212 238 263 294l92 102 33 15c51 24 60 25 302 26l230 1 93-24zm-40-91c-3-3-9 2-12 12l-7 18 12-12c7-7 10-15 7-18zm-1128-599c0-2-8-10-17-17l-18-14 14 18c13 16 21 21 21 13zm426-474c-4-3-64 24-76 35-2 2 2 8 10 13l15 9 27-26c15-15 26-28 24-31zm-21-73 120-22 7-11 7-11-7-7-8-8-89 19c-50 10-105 21-122 25l-33 6v-12c0-6 17-34 39-63l39-51 68-34 69-34 75-75c130-131 365-442 659-876l102-149-3-21-3-20-52-20-53-20 6-20 5-20-17 29c-15 28-356 512-489 696-111 153-230 323-315 450-46 69-103 153-127 188s-43 70-43 78v14l23-4c12-3 76-15 142-27zM600 1320l15-10h-10c-5 0-17 5-25 10l-15 10h10c6 0 17-5 25-10zm-36-39c-10-10-21-17-23-15-6 6 20 34 32 34h10l-19-19zm525-34c14-6 26-18 29-25l4-12-27 10-26 10H941l-5 9c-10 16 7 21 68 21h61l24-13zm91-107c12-16 19-30 16-30-2 0-14 14-26 30-12 17-19 30-16 30 2 0 14-13 26-30zm100-141c15-28 5-23-15 7l-17 26 11-6c6-4 16-16 21-27zm157-311c104-145 230-321 279-392 49-72 104-145 122-163l33-33-23-9c-13-4-84-11-158-14l-135-6-80 10c-44 5-93 12-110 14-16 3-59 8-95 11s-84 7-108 10l-43 5 32 22c18 12 41 34 52 48l19 27 9 43 8 44 1 323c0 177 2 322 4 322s89-118 193-262zm-96 225 14-18-17 14c-17 13-22 21-14 21 2 0 10-8 17-17zM568 203c-10-2-26-2-35 0l-18 5h70l-17-5zm327-43c-3-5-14-10-23-9h-17l20 9c27 11 27 11 20 0zm-150-10c-38-4-106-7-150-7l-80 1 70 6c39 4 106 7 150 7h80l-70-7zm1278 3c-13-2-33-2-45 0l-23 4h90l-22-4zm124-9c-3-3-12-4-19-1l-13 5 19 1c11 1 17-2 13-5zM807 134c-3-3-12-4-19-1l-13 5 19 1c11 1 17-2 13-5zm877 2594-19-23 23 19c21 18 27 26 19 26-2 0-12-10-23-22zm-823-174 1-19 5 13c3 7 2 16-1 19-3 4-6-2-5-13zm1-79v-30l5 18c2 9 2 23 0 30l-5 12v-30zm-6-278-6-244 6-17 6-16 9 6 9 5-6 252c-4 139-8 253-9 255-1 1-5-107-9-241zm354-667c0-5 4-10 9-10 6 0 13 5 16 10l6 10h-15c-9 0-16-4-16-10zm-405-90c3-5 10-10 16-10 5 0 9 5 9 10 0 6-7 10-16 10h-15l6-10zm-35-10c0-5 5-10 10-10 6 0 10 5 10 10 0 6-4 10-10 10-5 0-10-4-10-10z"/></g><g fill="#324755" transform="matrix(.1 0 0 -.1 0 300)"><path d="M0 2135c0-476 2-865 5-865s42 24 88 54c45 29 114 72 154 95 39 23 74 49 77 57s12 14 20 14 16 6 19 13l4 12 6-45c4-25 9-308 13-630l6-585 14-27c8-15 18-27 22-26 4 0 24-6 44-15l37-17 183-6 184-7 27 18 27 17v-41l-22-12-23-13-165 2c-91 1-190 5-220 8l-55 5 25-15c14-8 47-18 74-22l48-7-13-7c-8-4-38-13-66-20-94-22-71-33 107-51L735 7l205-1 205-1 59 30c32 17 58 35 58 40-1 12-35 21-117 32l-60 8 47 23 47 23 23 37 23 37 3 363 3 363 9-3c11-4 222-294 413-568 174-249 179-255 231-282l39-20 54-5c29-3 56-9 58-13l5-8-44-6c-24-4-81-18-127-31l-84-23 452-1c248-1 458 2 467 5s16 12 16 19v14l-52 10c-29 6-75 13-101 16l-48 6 53 27 52 27 19 27 20 27 5 50c2 27 1 66-2 85l-7 36-52 78c-63 92-321 458-576 817-102 143-200 285-218 315-19 30-36 53-39 51-2-2-52 6-109 19-57 12-112 20-120 18l-16-3 41-57 41-58h13c8 0 39-11 71-25l57-26 55-52c102-95 328-396 661-878l122-177v-50l-55-23-55-23v-51l-19 40c-10 23-67 109-126 193l-108 151-8-4c-4-3-11 0-15 6l-7 12 11-7c18-11 14 2-10 34l-21 29-8-5-9-5 5 13 5 13-26 30c-14 17-22 23-18 15l8-15-18 14-17 14 5 14 6 14-9-5-9-6-16 25-17 26 7 11 7 11-11-7-10-6-33 47c-72 105-97 141-148 211-102 139-61 70 111-183 95-140 179-265 186-278l14-22-21 25c-26 33-127 172-225 312-44 62-136 191-205 286-231 317-331 464-331 484 0 8 28 46 63 84 34 39 141 160 237 270 96 109 200 226 231 259 53 57 301 337 363 411l30 34-10 27-9 28-25 13-25 13-215-3-215-3-28-19c-37-25-27-32 15-10l33 18h200l200 1 22-20 23-19-8-6c-9-7-217-233-267-291-52-59-427-481-481-539-143-156-204-227-204-237v-13h29l142-207c79-115 264-381 413-593 330-472 436-627 436-643v-11l-19 19c-11 11-71 92-134 180-62 88-163 228-222 310-60 83-133 184-163 225s-68 93-86 115c-17 22-40 54-51 70-10 17-34 49-53 72l-35 42-10-6-10-6 6 16 6 16-19 6-20 6-12-7-13-8 12 15 12 15-20 12-19 12v-22l-20 5-20 5v-14c0-8-5-14-11-14h-10l7-12 8-13-17 14-17 14 17 13 18 13-17 1h-17l-10-17c-6-10-11-14-11-9v8l-17-13-18-13 12 14 12 13-25 24-26 24-19-22c-10-12-17-24-15-28 11-18-37-33-61-18l-11 7-16-6-16-6v-33l-8 11c-4 6-19 14-34 18l-28 6v-8c0-4 5-13 12-20l12-12-34 7c-19 5-71 8-116 8h-81l-18-15-18-15 5 15 5 15 34 12 34 12 78-3 77-3v27l-45-5-45-6v11c0 5-7 10-15 10s-15-3-15-7v-8h-47c-27 0-54 4-60 8l-13 8 6-14 5-15-11-7-12-8-9 14-9 14-15-19c-8-10-12-22-10-26 3-5-2-11-11-14l-15-6 5-8c5-9-21-35-45-44l-16-6v13c0 8 5 13 10 12s12 4 14 11l5 14-21-12c-12-6-25-18-28-26l-5-15-16 13-16 13 8-14 9-13-24 6c-13 3-18 3-12 0l13-6-10-18-10-19-30 9-31 9 7-22 7-22-15 12-15 13-23-25-23-24 14-17 14-17-22 13-22 14 6 29 6 29-22-7-21-6-1 13c-1 7-3 24-5 38-5 40-23 1023-24 1284 0 234-7 303-15 155-2-41-7-600-12-1244l-8-1170-6 415c-4 228-10 811-14 1295l-7 880 23 34 24 34 35 18 35 18 175 6 175 6 137-29 136-29 26-17 26-16v-30h-19c-10 0-56 7-101 16-45 8-84 14-85 12-2-2 2-10 8-18l12-15 100-23 99-22 16-15 15-16-3-212c-2-117-2-210 1-207 2 3 26 30 53 60 27 31 81 91 119 135 71 80 111 125 264 293l84 93 41 22 41 22 238 3 237 3 115-31 114-32 17-19c9-11 15-22 12-25-6-5-111 10-150 22l-18 5 6-15 6-15 86-22 87-23 23-23 22-22v-31c0-17-4-39-10-49l-9-19-54 13c-88 21-131 36-144 53l-13 16v91l-9-14-9-14-16 32c-9 17-18 31-20 31s-2-18 1-40l6-40-19-27c-29-46-111-141-219-258-56-60-124-136-151-167s-89-101-139-156c-112-123-346-388-374-423l-21-27 16-13c8-7 22-25 30-41 8-15 19-28 25-28h10l-11 19c-5 11-10 27-10 35v16l41-5c22-3 86-14 142-25s107-20 114-20c6 0 92 87 190 193 225 243 383 400 383 381 0-4 8 0 18 8l17 14 52-4 51-4 6-23 6-23 30-7c16-4 30-11 30-16v-9h50v-28l33-6 33-6 13-35 12-35h49l20-17c21-18 26-39 11-45-5-2-13-15-16-30l-7-28 16-1c9-1 22-2 29-3l12-1 3-21 3-22 21-5 20-6-6-9-6-10 15-12 15-12v-40l13 11 14 11 6-7c4-3 7-14 7-24s8-34 18-53l17-36h24l4-37c2-21 4 274 5 655l2 692H0v-865zm1700-367c33-29 62-58 65-66l5-13-23 6c-12 4-55 22-96 40l-74 33 26 26c14 14 29 26 32 26 4 0 33-23 65-52zm-345-418 6-10-13-17c-7-10-18-19-23-20l-11-2v39l13-4 12-5-6 15-5 14h10c6 0 14-4 17-10zm151-25c-1-8-5-18-9-21l-7-7v24l-12-6c-7-4-4 1 6 9 24 20 25 20 22 1zm-182-44 5-8-19 2c-27 2-33 10-10 12 11 1 22-2 24-6zm-144-21-15-10h11c7 0 15-8 18-17l7-17-20 18-21 19 6 8c3 5 11 9 17 9h12l-15-10zm-72-20c12-12 22-25 22-29v-9l-37 14-38 13-52 1h-53l-1-92c-1-51-5-142-9-203l-7-110-1 218-2 217h156l22-20zm-23-32c22-6 44-12 50-12 11-1 142-181 325-450l88-129-4-12-5-13 12-8 12-7-7 11-7 12h8c4 0 20-17 34-38 108-157 227-322 248-344l25-28h-11c-6 0-18 12-28 26-9 14-19 23-23 20-10-11 42-58 83-76l40-18 135-5c155-6 140-1-39 12l-123 9-11 11-11 11 35-11 34-10 115 4 115 5-50-7-50-8 36-1c20-1 78-4 130-6l94-5-40 9-40 9 52-3 53-3 20 14 20 14v-10c0-6-12-17-27-26l-28-16 25 6 25 6-19-15-20-16h-35c-20 0-120 5-224 10l-187 10-33 14c-34 14-72 52-102 101l-18 30 21-19c34-29 26-12-23 55-44 60-57 70-33 26l11-22-14 12c-8 6-23 26-33 45l-20 33 17-14 17-13v9c0 13-32 42-45 40-11-1-108 131-214 291l-24 37 16-14 17-13v10c0 5-6 15-13 21l-14 11-8-8-8-7 7 13 7 12-7 11-6 11-7-11-7-10-13 22-14 22 16-14c10-7 17-10 17-6 0 9-238 343-263 370l-10 10 9-15 8-15-28 23-29 22h-96l-6 10-6 10h33c18 0 51-5 73-12zm155-30 23-33-31 29c-34 31-37 36-24 36 5 0 19-15 32-32zm44-64 6-15-10 6c-6 3-10 10-10 16 0 14 7 11 14-7zm926-544c12-16 19-30 16-30-2 0-14 14-26 30-12 17-19 30-16 30 2 0 14-13 26-30zM683 245l29-6-6 10-6 9 19-5 20-5-6-14-5-14h15c9 0 19 5 22 11l7 10 24-15 23-16h59l5 13 5 12 1-18 1-17-26-11-27-10-116 6c-64 3-140 8-168 11l-53 5v29h31l-7 11-6 11 56-4 56-3v7c0 4 6 6 13 4 6-3 25-7 40-11zm1517-44 145-10-195 5c-189 4-240 9-240 23v7l73-8c39-4 137-12 217-17zm-750 524c0-9 80-115 87-115 3 0-2 10-11 23-9 12-27 39-41 60-23 34-35 45-35 32zm116-167c22-36 96-131 91-115-7 19-87 127-94 127-2 0-1-6 3-12zm682-435c17-2 47-2 65 0l32 4h-130l33-4zm78 2746c3-5 11-9 19-9s21-10 29-22c9-12 16-18 16-12 0 18-24 41-48 47l-22 5 6-9zm-1369-49 18-35 3-367 3-368h35l44 46 45 45-18-7-18-7-14 19-13 19-8-7-7-7-18 23-19 24v547l-10 35c-5 20-17 45-25 55l-16 20 18-35zm-282 13 160-3 10-14c6-7 20-18 33-25l22-12v-845l12-12 12-12h62l45 48c24 26 56 61 69 77l25 30-46-42c-24-24-49-43-53-43h-8l13 18 14 17-20-17c-11-9-32-21-48-27-15-6-27-15-27-21 0-16 15-12 46 12l29 22-24-27-24-27h-44l-6 167c-4 91-7 278-7 415v249l-15 29c-8 16-24 34-34 40l-20 10-168-2-168-2 160-3zm188-833v-65l4 33c2 17 2 47 0 65l-4 32v-65zm662-407c8-18 18-33 20-33 10 0 4 16-16 40l-20 25 16-32zm-340-253-6-10h10c5 0 13 5 16 10l6 10h-10c-5 0-13-4-16-10zm71-4 6-16h16c8 0 13 1 11 3-2 1-12 9-22 16l-17 14 6-17zm-626-147v-10l10 6c6 3 10 8 10 11 0 2-4 4-10 4-5 0-10-5-10-11zM568 153c7-3 16-2 19 1 4 3-2 6-13 5l-19-1 13-5z"/></g><g fill="#1c252d" transform="matrix(.1 0 0 -.1 0 300)"><path d="M1 2413c0-324 3-581 6-573 4 8 17 23 30 33 12 10 23 24 23 32 0 7 11 20 25 29l25 16v40l25 10 25 10v32l13-5 12-4 12 16c7 9 13 24 13 35v18l15-6 15-5v18c0 11 3 21 7 23 5 2 27 41 51 88l42 85v74l10 6c6 3 10 16 10 28v21l9-10 9-9 7-1070 7-1070 9-15 8-15 1 255c0 140-5 716-11 1280l-12 1026 18 38 18 38 36 23 36 24 65 10c36 6 126 13 200 17l135 7 5 7c3 5 41 12 85 18l80 9-532 2-533 1 1-587zm2180 428 76-6 17-14c9-7 16-21 16-30l-1-16-92-100c-50-55-94-99-98-98-3 1-17-10-30-24s-18-23-11-19l12 7v-9c0-11-56-64-67-63-4 1-8-3-8-9 0-5-10-17-23-25l-22-16 6-10 5-9-12 2-13 3-1-10c0-5-4-16-8-23l-8-12-11 6-11 7 6-10 7-11-55-46-54-47 5-13 5-12-22-20c-11-10-24-18-28-16-3 1-6-4-6-10v-13h-15l-15-1 2-12 3-11-20-11-21-11 6-8 5-9-17-13-17-14 9 15 8 15-9-8c-5-5-9-12-9-15 0-4-4-13-8-20l-8-12-11 6-11 7 6-10 6-10-15-22c-8-12-19-19-23-16-5 2-17-5-27-17l-19-21 13 7 12 7v-8c-1-10-68-83-77-83-4 0 9 17 28 37l34 38-28-25c-16-14-67-69-114-123l-86-98 25-27c14-15 92-124 173-242 82-118 278-400 436-626 341-487 389-559 389-574v-12l-12 4c-7 3-57 65-110 139s-125 173-160 221c-99 137-127 177-212 291l-79 106-10-6-10-6 6 9 6 10-10 14-9 15-11-15-11-15 6 18 5 17h-9c-6 0-10 7-10 15v15h-45l14-9 13-8-10-7-11-6-6 20c-3 11-11 20-16 20-13 0-11-13 4-30l12-14-27 17-28 17v-10c0-12-24-40-34-40-3 0-3 7 1 16l6 16-13 8-13 8-20-24-19-25 18-15 19-15-33 18-32 18-18-12c-9-6-16-16-14-22 1-7-2-21-8-31l-11-20h22l-6-19-6-19 16-6c8-3 15-9 14-13s-1-16 0-27l1-18 14 11 14 12 6-16 5-15h-21l12-15c7-8 19-15 27-15h15l-12-15-12-15h23l-6-10-6-10 28-11 27-10-14-9-15-10 15-1c8-1 18-1 22 0l7 1-5-14-6-15 31-16c34-17 41-27 14-19l-18 5 24-14 24-14-14-7-14-6 23 6 22 5v-14c0-9-6-18-12-21l-13-6 24 4 23 5 5-20 5-19h38v-19l-17 6-18 6 20-16 20-15 5 7 5 8 20-8 20-8h-17c-22-1-23-8-4-26l14-14 6 15 6 15 9-6 10-6-6-16-6-16 21 5 21 6-2-11-2-11 32-17 32-16-6-7-6-6h33v-22l13 5c6 2 11 10 9 16l-2 12 10-6 10-6-5-10-6-9 18-1 18-1-25-7-25-7 20-6c48-14 81-21 92-19l11 1-5-19-5-20 29 3c16 2 41 2 55-1l27-5-6-16-6-15 11 7 12 7 1-13v-13l9 20 9 20v-11l1-12 24-6 25-6 21-30 21-30h31l-12-15-12-15h-82c-101 1-316 16-336 25-8 3-40 42-70 87-123 180-609 857-670 931l-24 30-33 13-32 14H934l-19-14-19-14 3-518 3-519-21-19-21-19-177 5-177 6-13 18-14 19 5 35c5 31 14 145 19 225l2 30 13 8 13 9-11 13-11 13 18 7 18 7-20 8-20 7 32 7 32 7-5 14-5 13 9 6 10 6 13-17 14-17-10 5-10 6-17-18-17-18 12-8c20-13 41-13 49 0l8 12v-32l30 5 30 4-6 9-5 9h10c13 0 14-10 2-29l-9-14-9 6c-5 3-15 2-23-4l-15-9h61l17 20 18 21 12-8 12-8-17-3c-10-2-18-7-18-12v-9l37 3 37 4 4 11c2 6 11 11 20 11h16l-20-14-19-15 24-9 24-9 3-24c1-13 5-71 8-128l7-105 9-15 9-16 2 45c1 25 3 253 5 507l3 462-10 7c-15 9-16 5-23-51-17-129-20-147-31-165-5-8-10-19-11-25-1-5-5-21-9-33l-8-24-9 14-8 13-15-19-14-19-14 11-13 11-12-7-11-8 2-29 2-30h-40l1 18 2 17h-28v-14c0-8-7-16-15-20-8-3-15-10-15-17v-11l15 6 15 5v-21l-20 6c-11 3-30 9-41 12l-21 7 16-25 16-25-15-13-15-13-7 7-7 6 12 12c18 18 15 28-7 28-11 0-23 4-26 10l-6 10 15-6 16-6v22h-40l-1 28c-2 42-7 100-14 135-7 39-24 703-26 1037l-2 245-7-180c-4-99-10-566-14-1037l-6-856 10-27 10-26 32-14 33-13 180-7 180-7 25 20 25 20 6 74 6 73 1-67 2-68h10c19 0 10-30-19-62l-29-33-174 3c-95 1-191 5-213 8l-40 5 15-10c8-6 39-13 68-17 29-3 51-8 49-11-3-2-33-12-68-22l-64-19 15-5c26-10 314-27 438-26h117l84 22 84 22 4 12 4 12-48 6c-26 4-64 10-83 14l-35 8 42 13c24 7 50 21 59 31l16 18-5 16-6 15h-33c-18 0-50-4-70-9l-38-9v142c0 77 3 191 7 253l6 112 9-5 8-5v18l1 18 14-19 14-19h80l14 11 14 12 6-6 6-7 12 29 12 29 6 110 6 110 58-77c32-43 60-78 63-78 6 0-140 215-206 305l-41 56-25 10c-14 5-45 9-69 9h-43l-6-12-6-13 4 23 4 22h-18l-1-322c-1-178-5-366-9-418l-7-95-1 438-2 437 18 1c9 1 49 1 87 0l70-3 23-15 23-14-4-12-4-12 19-28 20-27 8 5c5 3 12 0 16-6l7-12-11 7c-30 18-56 57 502-734 45-63 95-135 111-159 17-24 43-52 59-62l29-18 71 4 71 4-40-7-40-7h400l13 9c8 4 20 22 28 40l13 31 1-42v-42l-24-28-24-28-159 3c-87 2-197 7-245 11l-87 8-38 28-38 28 25-27c14-15 41-36 61-46l35-18 75-7c40-4 78-10 83-13l10-6-60-13c-32-8-76-18-96-24l-38-10V0h719l27 10 27 11-10 10-9 9-90 11c-49 6-91 13-93 15-4 4 0 5 65 23 23 6 54 21 69 33l28 21 18 41 19 41v80l-20 43c-11 23-53 91-95 150s-225 316-406 572c-182 256-338 479-346 495-9 17-17 31-18 33-4 5-239 51-243 47-2-2 10-24 27-48l30-44 81-29 81-28 41-35c51-44 243-284 348-438 8-11 59-83 114-158 54-75 129-182 167-238s82-120 98-142 42-59 56-83l27-44-6-23-6-24-60-22-60-22 1-31 1-31 5 17 4 18 22-1c12-1 35-4 51-8l29-6-18-15c-21-18-118-60-124-54-2 2 1 21 8 42l13 39-17 34c-20 39-104 159-111 159-3 0 2-10 10-22 23-33 19-47-5-18s-18 16 29-60c19-30 31-46 27-35-15 43-16 49-1 23l16-27-9-23-10-23v14c-1 7-48 79-105 160-57 80-117 167-134 191-33 47-108 153-408 572-191 267-242 340-317 452l-46 69 10 18c10 19 129 156 419 483 96 108 216 243 265 300 50 57 117 132 148 166 32 34 64 72 72 84l14 21-5 22-6 22-33 15-33 16-69-2-68-1 76-6zm-81-275c0-2-8-10-17-17l-18-14 14 18c13 16 21 21 21 13zm-250-279c0-2-10-12-22-23l-23-19 19 23c18 21 26 27 26 19zm-350-400c0-2-15-16-32-33l-33-29 29 33c28 30 36 37 36 29zm-77-82c-3-9-8-14-10-11-3 3-2 9 2 15 9 16 15 13 8-4zm-252-612 14-18-17 14c-10 7-18 15-18 17 0 8 8 3 21-13zm349-203c0-5-4-10-10-10-5 0-10 5-10 10 0 6 5 10 10 10 6 0 10-4 10-10zm50-10v-10h-35l15 10c19 12 20 12 20 0zm-835-50 6-10h-10c-5 0-13 5-16 10l-6 10h10c5 0 13-4 16-10zm262-537-3-118v230c0 127 2 180 3 118 2-62 2-165 0-230zm6-209c-6-15-23-19-23-5 0 5 3 24 7 42l7 34 7-28c4-16 5-35 2-43zm1409 2662c9-11 198-64 198-56 0 3-6 13-12 22l-13 16-63 6c-34 3-75 9-90 12l-27 7 7-7zm-596-15-5-8 24 5c14 2 25 6 25 8 0 8-39 4-44-5zm-965-4c2-1 15-11 29-22l25-20-19 23c-11 12-24 22-29 22-6 0-8-1-6-3zm149-4v-10l83-18c45-9 97-23 115-31l32-13v12c0 7-6 19-13 28l-12 16-70 6c-38 3-85 9-102 13l-33 7v-10zm1350-35v-36l-67-84c-37-45-106-124-153-174-100-106-279-306-494-549-33-38-91-103-128-144-38-42-68-80-68-84v-8l9 5 9 6 6-16 6-16 13 10 12 10 125-24c69-13 133-24 143-24h18l-5 8c-2 4-49 25-103 47-54 21-100 40-102 42-3 2 24 33 59 68l64 64 12-10 12-10 5 13 5 13 1-20c1-28 20-45 48-45h23v-18l52-4 53-3 15 12c8 7 35 30 59 51 25 20 168 172 318 337l274 300 18 40c11 22 22 49 25 61l6 20-67 13c-38 7-87 21-110 31l-43 19v101l-9-2c-5-2-17 6-25 17l-15 20-1-37zm20-111c0-2-15-16-32-33l-33-29 29 33c28 30 36 37 36 29zm-180-200c0-2-10-12-22-23l-23-19 19 23c18 21 26 27 26 19zm-360-400c0-2-12-14-27-28l-28-24 24 28c23 25 31 32 31 24zm-150-171c0-2-8-10-17-17l-18-14 14 18c13 16 21 21 21 13zm-80-89c0-2-12-14-27-28l-28-24 24 28c23 25 31 32 31 24zm-699 542-3-419 12-15 12-15h56l31 26c17 14 31 31 31 37v10l-22-20c-13-11-34-26-47-33l-24-13-14 19-13 18v801l-8 11-7 12-4-419zm80-252-1-58 23 6c12 4 33 18 47 32l25 26-17-6-17-6-15 20-14 20-8-13-8-13-7 25-7 25-1-58zm-11-147-15-10h12c6 0 15 5 18 10 8 12 4 12-15 0zm-96-682-19-23 23 19c21 18 27 26 19 26-2 0-12-10-23-22zm621-208c-3-4 1-12 8-17l12-10 25 13c14 8 23 14 20 15-3 0-17 2-32 4l-28 4-5-9zm-31-24-6-15-15 6-16 6 7-11c9-15 18-15 41 1l18 14-12 7-11 7-6-15zm-28-54-5-9h14c8 0 15 4 15 9 0 4-4 8-9 8-6 0-12-4-15-8zm-711-22c3-5 8-10 11-10 2 0 4 5 4 10 0 6-5 10-11 10h-10l6-10zm-49-59c-4-7-5-15-2-18 9-9 19 4 14 18l-4 13-8-13zm-100-16c-3-8-3-15 0-15s12 7 20 15l15 15h-14c-8 0-17-7-21-15zm1546-187c25-35 80-114 122-175 43-62 80-113 82-113 7 0 4 5-124 188-62 89-115 162-118 162s14-28 38-62zM790 501c0-6 4-13 10-16l10-6-6 15c-7 18-14 21-14 7zm1338-348c12-2 32-2 45 0l22 4h-90l23-4z"/></g></g></svg>